<svg width="32" height="32" viewBox="0 0 32 32" fill="none" xmlns="http://www.w3.org/2000/svg">
<path fill-rule="evenodd" clip-rule="evenodd" d="M11.0527 3.63535C12.3324 3.57645 12.7404 3.56335 16 3.56335C19.2596 3.56335 19.6676 3.57754 20.9462 3.63535C22.2247 3.69317 23.0975 3.89717 23.8611 4.19281C24.6607 4.49499 25.3862 4.96735 25.9862 5.57826C26.5971 6.17717 27.0684 6.90154 27.3695 7.70226C27.6662 8.4659 27.8691 9.33863 27.928 10.615C27.9869 11.8968 28 12.3048 28 15.5634C28 18.823 27.9858 19.231 27.928 20.5106C27.8702 21.787 27.6662 22.6597 27.3695 23.4234C27.0684 24.2242 26.5963 24.9498 25.9862 25.5495C25.3862 26.1604 24.6607 26.6317 23.8611 26.9328C23.0975 27.2295 22.2247 27.4324 20.9484 27.4914C19.6676 27.5503 19.2596 27.5634 16 27.5634C12.7404 27.5634 12.3324 27.5492 11.0527 27.4914C9.77636 27.4335 8.90364 27.2295 8.14 26.9328C7.33919 26.6317 6.61362 26.1596 6.01382 25.5495C5.40332 24.9503 4.93089 24.225 4.62945 23.4244C4.33382 22.6608 4.13091 21.7881 4.072 20.5117C4.01309 19.2299 4 18.8219 4 15.5634C4 12.3037 4.01418 11.8957 4.072 10.6172C4.12982 9.33863 4.33382 8.4659 4.62945 7.70226C4.93133 6.90163 5.40413 6.17642 6.01491 5.57717C6.61386 4.96681 7.3387 4.49438 8.13891 4.19281C8.90255 3.89717 9.77527 3.69426 11.0516 3.63535H11.0527ZM20.8491 5.79535C19.5836 5.73754 19.204 5.72554 16 5.72554C12.796 5.72554 12.4164 5.73754 11.1509 5.79535C9.98036 5.84881 9.34545 6.04408 8.92218 6.20881C8.36255 6.42699 7.96218 6.68554 7.54218 7.10554C7.14405 7.49287 6.83765 7.96439 6.64545 8.48554C6.48073 8.90881 6.28545 9.54372 6.232 10.7143C6.17418 11.9797 6.16218 12.3594 6.16218 15.5634C6.16218 18.7674 6.17418 19.147 6.232 20.4124C6.28545 21.583 6.48073 22.2179 6.64545 22.6412C6.83745 23.1615 7.144 23.6339 7.54218 24.0212C7.92945 24.4194 8.40182 24.7259 8.92218 24.9179C9.34545 25.0826 9.98036 25.2779 11.1509 25.3314C12.4164 25.3892 12.7949 25.4012 16 25.4012C19.2051 25.4012 19.5836 25.3892 20.8491 25.3314C22.0196 25.2779 22.6545 25.0826 23.0778 24.9179C23.6375 24.6997 24.0378 24.4412 24.4578 24.0212C24.856 23.6339 25.1625 23.1615 25.3545 22.6412C25.5193 22.2179 25.7145 21.583 25.768 20.4124C25.8258 19.147 25.8378 18.7674 25.8378 15.5634C25.8378 12.3594 25.8258 11.9797 25.768 10.7143C25.7145 9.54372 25.5193 8.90881 25.3545 8.48554C25.1364 7.9259 24.8778 7.52554 24.4578 7.10554C24.0705 6.70743 23.5989 6.40104 23.0778 6.20881C22.6545 6.04408 22.0196 5.84881 20.8491 5.79535V5.79535ZM14.4673 19.2626C15.3233 19.619 16.2764 19.667 17.1639 19.3987C18.0514 19.1303 18.8182 18.5622 19.3334 17.7913C19.8485 17.0203 20.0801 16.0945 19.9884 15.1718C19.8968 14.2492 19.4876 13.387 18.8309 12.7324C18.4123 12.3141 17.9061 11.9937 17.3487 11.7944C16.7914 11.5952 16.1968 11.5219 15.6078 11.58C15.0188 11.6381 14.45 11.8261 13.9423 12.1304C13.4347 12.4347 13.0008 12.8478 12.672 13.3399C12.3431 13.832 12.1275 14.3909 12.0406 14.9764C11.9536 15.5619 11.9976 16.1593 12.1693 16.7257C12.341 17.2922 12.6362 17.8135 13.0335 18.2521C13.4309 18.6908 13.9205 19.0359 14.4673 19.2626ZM11.6385 11.2019C12.2113 10.6291 12.8913 10.1748 13.6396 9.86484C14.3879 9.55487 15.19 9.39533 16 9.39533C16.81 9.39533 17.6121 9.55487 18.3604 9.86484C19.1087 10.1748 19.7887 10.6291 20.3615 11.2019C20.9342 11.7747 21.3885 12.4546 21.6985 13.203C22.0085 13.9513 22.168 14.7534 22.168 15.5634C22.168 16.3734 22.0085 17.1754 21.6985 17.9238C21.3885 18.6721 20.9342 19.3521 20.3615 19.9248C19.2047 21.0815 17.6359 21.7314 16 21.7314C14.3641 21.7314 12.7953 21.0815 11.6385 19.9248C10.4818 18.7681 9.83197 17.1992 9.83197 15.5634C9.83197 13.9275 10.4818 12.3586 11.6385 11.2019V11.2019ZM23.536 10.3139C23.6779 10.18 23.7916 10.019 23.8702 9.84042C23.9487 9.66183 23.9907 9.46928 23.9935 9.27419C23.9964 9.07909 23.9601 8.88541 23.8867 8.7046C23.8134 8.5238 23.7045 8.35955 23.5665 8.22158C23.4285 8.08361 23.2643 7.97473 23.0835 7.90137C22.9027 7.82802 22.709 7.79169 22.5139 7.79454C22.3188 7.79738 22.1263 7.83934 21.9477 7.91793C21.7691 7.99652 21.6081 8.11015 21.4742 8.25208C21.2138 8.52811 21.0712 8.89476 21.0768 9.27419C21.0823 9.65362 21.2355 10.0159 21.5038 10.2843C21.7721 10.5526 22.1345 10.7058 22.5139 10.7113C22.8933 10.7168 23.26 10.5743 23.536 10.3139V10.3139Z" fill="white"/>
</svg>
