<svg width="32" height="32" viewBox="0 0 32 32" fill="none" xmlns="http://www.w3.org/2000/svg">
<path d="M3 11.247V22.1634C3 23.3303 3.46357 24.4495 4.28873 25.2746C5.11389 26.0998 6.23305 26.5634 7.4 26.5634H25C26.167 26.5634 27.2861 26.0998 28.1113 25.2746C28.9364 24.4495 29.4 23.3303 29.4 22.1634V8.96335C29.4 7.7964 28.9364 6.67724 28.1113 5.85208C27.2861 5.02692 26.167 4.56335 25 4.56335H7.4C6.23305 4.56335 5.11389 5.02692 4.28873 5.85208C3.46357 6.67724 3 7.7964 3 8.96335V11.247ZM7.4 6.76335H25C25.5835 6.76335 26.1431 6.99514 26.5556 7.40772C26.9682 7.8203 27.2 8.37988 27.2 8.96335V10.5914L16.2 16.5138L5.2 10.5914V8.96335C5.2 8.37988 5.43179 7.8203 5.84437 7.40772C6.25695 6.99514 6.81652 6.76335 7.4 6.76335V6.76335ZM5.2 13.0906L15.6786 18.7314C15.8389 18.8176 16.018 18.8628 16.2 18.8628C16.382 18.8628 16.5611 18.8176 16.7214 18.7314L27.2 13.0906V22.1634C27.2 22.7468 26.9682 23.3064 26.5556 23.719C26.1431 24.1316 25.5835 24.3634 25 24.3634H7.4C6.81652 24.3634 6.25695 24.1316 5.84437 23.719C5.43179 23.3064 5.2 22.7468 5.2 22.1634V13.0906Z" fill="white"/>
</svg>
