<svg width="48" height="49" viewBox="0 0 48 49" fill="none" xmlns="http://www.w3.org/2000/svg">
<path fill-rule="evenodd" clip-rule="evenodd" d="M36.3778 0.531585C34.0068 0.966832 32.9228 1.38444 31.4323 2.43663C28.4339 4.5534 26.606 8.50495 27.0852 11.8345C27.5553 15.102 30.6246 20.2395 35.5483 26.0008C36.8228 27.4921 37.2893 27.7341 38.1251 27.3375C38.6301 27.0979 40.9723 24.3018 43.0288 21.4835C46.5139 16.7075 48.1817 12.9489 47.9796 10.3266C47.6102 5.53739 44.2718 1.69868 39.614 0.707185C38.8904 0.55316 36.8602 0.443035 36.3778 0.531585ZM38.4538 6.61332C39.335 6.80017 39.9873 7.16244 40.6683 7.84345C42.4289 9.60404 42.4229 12.3635 40.6546 14.1319C38.8796 15.9069 36.1273 15.9069 34.3523 14.1319C32.584 12.3635 32.578 9.60404 34.3386 7.84345C35.4811 6.70093 36.8859 6.28106 38.4538 6.61332ZM7.82308 15.3439C2.72732 17.386 0.626315 18.2704 0.434581 18.454C0.28731 18.5952 0.124843 18.8664 0.0735329 19.0568C0.0132174 19.2808 -0.0110776 24.3643 0.00468135 33.4601L0.0290702 47.5171L0.254292 47.833C0.499962 48.1773 1.09908 48.4967 1.50572 48.5C1.64718 48.5011 4.73912 47.3119 8.3768 45.8573L14.9907 43.2126V27.8471C14.9907 19.3961 14.9801 12.4836 14.9672 12.486C14.9544 12.4883 11.7395 13.7743 7.82308 15.3439ZM17.9924 27.8457V43.2122L23.9958 45.6133L29.9992 48.0145V35.9641V23.9137L29.3516 23.0003C27.6163 20.5529 26.1038 17.9845 25.3116 16.14L24.9288 15.2488L21.7654 13.9894C20.0256 13.2967 18.4649 12.6735 18.2972 12.6045L17.9924 12.4791V27.8457ZM47.5937 20.0867C45.7973 23.0215 41.9496 28.0122 40.413 29.4005C39.521 30.2063 38.0857 30.6153 36.8308 30.421C35.6869 30.244 34.9455 29.8048 33.8983 28.6838L33.0023 27.7247L33.0016 38.112L33.0009 48.4993L33.4465 48.3231C33.6916 48.2261 36.9197 46.9355 40.6202 45.4549C48.0345 42.4884 47.8383 42.5881 47.9599 41.7287C47.9912 41.5073 48.0046 36.4117 47.9897 30.4051L47.9625 19.484L47.5937 20.0867Z" fill="url(#paint0_linear_304_58)"/>
<defs>
<linearGradient id="paint0_linear_304_58" x1="51.3532" y1="57.9426" x2="-12.4626" y2="50.6646" gradientUnits="userSpaceOnUse">
<stop stop-color="#E8BE29"/>
<stop offset="1" stop-color="#FFD25A"/>
</linearGradient>
</defs>
</svg>
