<svg width="65" height="49" viewBox="0 0 65 49" fill="none" xmlns="http://www.w3.org/2000/svg">
<path fill-rule="evenodd" clip-rule="evenodd" d="M14.6324 0.684422C12.0173 1.38757 10.291 4.01401 10.7408 6.6053C10.8193 7.05839 10.9881 7.66584 11.1158 7.95517L11.3478 8.48131L6.56316 8.51809L1.7785 8.55487L1.25736 8.9C0.970652 9.08976 0.580864 9.47968 0.391099 9.76639L0.0459686 10.2878L0.00994197 24.1823C-0.0177035 34.8747 0.0094416 38.2054 0.127654 38.6355C0.322423 39.3436 1.11176 40.153 1.81177 40.3621C2.1778 40.4715 3.63125 40.516 6.83974 40.516H11.3528L11.102 41.0828C10.7134 41.9615 10.5774 43.0668 10.7418 44.0107C11.4922 48.3203 16.6673 50.0018 19.7309 46.9313C21.3073 45.3513 21.7544 43.0469 20.8724 41.0477L20.6377 40.516H25.2384C27.7686 40.516 29.8713 40.4836 29.9109 40.4438C29.9506 40.4042 29.8615 40.1087 29.7129 39.7871C29.461 39.2422 29.4401 38.9757 29.4039 35.8563L29.3653 32.5101L28.9661 32.508C28.155 32.5035 26.7861 32.1248 25.7525 31.6188C23.7284 30.6279 22.0829 28.5677 21.569 26.3806C21.3246 25.3402 21.3246 23.6682 21.569 22.6278C22.0829 20.4407 23.7284 18.3804 25.7525 17.3895C26.7861 16.8835 28.155 16.5049 28.9661 16.5004L29.3653 16.4982L29.4039 13.152C29.4401 10.0326 29.461 9.76614 29.7129 9.22124C29.8615 8.89962 29.9506 8.60415 29.9109 8.5645C29.8713 8.52472 27.7686 8.49232 25.2384 8.49232H20.6377L20.8724 7.96068C21.2672 7.06589 21.4139 5.8984 21.2473 4.9791C20.6764 1.83014 17.6581 -0.129305 14.6324 0.684422ZM33.7804 8.63468C33.2105 8.79892 32.3072 9.73074 32.1423 10.3248C32.0588 10.6258 32.0082 12.5058 32.0079 15.3341L32.0071 19.8617L31.4403 19.6109C29.5738 18.7853 27.3296 19.1695 25.7565 20.5839C23.4398 22.6668 23.4398 26.3415 25.7565 28.4244C27.3384 29.8466 29.5732 30.2205 31.4755 29.3813L32.0071 29.1466L32.0079 33.6742C32.0082 36.5025 32.0588 38.3826 32.1423 38.6835C32.3177 39.3155 33.1742 40.1646 33.8355 40.3621C34.2015 40.4715 35.6549 40.516 38.8634 40.516H43.3765L43.143 39.9844C42.3032 38.072 42.6746 35.8493 44.0987 34.2654C46.1646 31.9677 49.8187 31.9488 51.8991 34.2251C53.3587 35.8222 53.7441 38.0507 52.8949 39.9844L52.6614 40.516H57.1745C60.383 40.516 61.8364 40.4715 62.2024 40.3621C62.8671 40.1636 63.6784 39.3523 63.8769 38.6877C64.0998 37.9419 64.0998 11.0665 63.8769 10.3207C63.6784 9.65606 62.8671 8.84471 62.2024 8.64619C61.8364 8.53685 60.383 8.49232 57.1745 8.49232H52.6614L52.8949 9.02397C54.2873 12.1951 52.3044 15.815 48.8506 16.4066C47.1644 16.6954 45.3074 16.0618 44.1598 14.8062C42.6786 13.1855 42.2888 10.9692 43.143 9.02397L43.3765 8.49232L38.7864 8.50358C36.2618 8.50983 34.0091 8.56875 33.7804 8.63468Z" fill="url(#paint0_linear_304_63)"/>
<defs>
<linearGradient id="paint0_linear_304_63" x1="68.5239" y1="57.9426" x2="-15.7848" y2="45.1124" gradientUnits="userSpaceOnUse">
<stop stop-color="#E8BE29"/>
<stop offset="1" stop-color="#FFD25A"/>
</linearGradient>
</defs>
</svg>
