<svg width="74" height="49" viewBox="0 0 74 49" fill="none" xmlns="http://www.w3.org/2000/svg">
<path fill-rule="evenodd" clip-rule="evenodd" d="M34.3514 0.590272C30.9977 0.997582 28.203 3.70023 27.7072 7.01558C27.6083 7.67648 27.5711 11.7506 27.6001 18.7066C27.644 29.1629 27.6512 29.3996 27.9494 30.1839C28.4809 31.5819 28.8834 32.2399 29.7746 33.168C30.8171 34.2538 31.6652 34.8157 32.8674 35.2174C33.7252 35.504 34.0649 35.5173 40.5216 35.5173H47.2783L50.9543 40.4916C53.826 44.3775 54.6683 45.4276 54.8038 45.2907C54.8992 45.1943 56.5601 42.9721 58.4944 40.3525L62.0116 35.5895L64.9603 35.5048C66.7109 35.4544 68.1436 35.3453 68.4864 35.236C70.7119 34.5266 72.5729 32.7471 73.4532 30.4867L73.8267 29.5275L73.8697 18.6303C73.8993 11.1164 73.8628 7.4418 73.7524 6.79489C73.2757 4.00348 71.1213 1.65141 68.2251 0.760442C67.5605 0.555921 65.6625 0.526909 51.3828 0.503094C42.5316 0.488372 34.8674 0.527631 34.3514 0.590272ZM4.68897 10.6629C2.3359 11.4765 0.571417 13.4432 0.145055 15.7271C0.0578778 16.1943 0 20.0277 0 25.3311C0 34.9468 0.00678368 35.0393 0.83295 36.589C1.38878 37.6314 2.69846 38.8768 3.784 39.3948C4.93145 39.9424 6.09868 40.1335 8.30497 40.1348L10.0426 40.136L13.1319 44.3217C14.831 46.6238 16.2573 48.504 16.3015 48.5C16.3457 48.4959 17.7522 46.6286 19.427 44.3504L22.472 40.2082L28.0391 40.136C31.1009 40.0963 33.6506 40.0194 33.7048 39.9648C33.7591 39.9104 33.5534 39.8226 33.2476 39.7697C30.8519 39.3547 28.798 38.3019 26.9395 36.5363C25.9648 35.6104 24.7271 33.811 24.2032 32.5585L23.8409 31.6925L16.5392 31.6551L9.23736 31.6177V29.454V27.2903H16.2375H23.2377V25.1974V23.1046H16.2375H9.23736V20.9396V18.7746H16.2375H23.2377V14.5889V10.4032L14.3251 10.408C6.25138 10.4122 5.34439 10.4361 4.68897 10.6629ZM63.2182 13.1456V15.3106H50.8055H38.3928V13.1456V10.9806H50.8055H63.2182V13.1456ZM63.2182 21.8056V23.9706H50.8055H38.3928V21.8056V19.6406H50.8055H63.2182V21.8056Z" fill="url(#paint0_linear_304_68)"/>
<defs>
<linearGradient id="paint0_linear_304_68" x1="79.0473" y1="57.9426" x2="-17.4862" y2="40.9959" gradientUnits="userSpaceOnUse">
<stop stop-color="#E8BE29"/>
<stop offset="1" stop-color="#FFD25A"/>
</linearGradient>
</defs>
</svg>
