<svg width="32" height="32" viewBox="0 0 32 32" fill="none" xmlns="http://www.w3.org/2000/svg">
<g clip-path="url(#clip0_190_186)">
<path d="M16 29.0018C23.1797 29.0018 29 23.1815 29 16.0018C29 8.82212 23.1797 3.00183 16 3.00183C8.8203 3.00183 3 8.82212 3 16.0018C3 23.1815 8.8203 29.0018 16 29.0018Z" fill="#1977F3"/>
<path d="M21.06 19.7605L21.6359 16.0018H18.0308V13.5631C18.0308 12.5357 18.5335 11.532 20.1496 11.532H21.7895V8.33273C21.7895 8.33273 20.3014 8.07861 18.8791 8.07861C15.9101 8.07861 13.9686 9.87752 13.9686 13.1371V16.0018H10.667V19.7605H13.9686V28.8446C14.6304 28.9488 15.3087 29.0018 15.9997 29.0018C16.6908 29.0018 17.369 28.947 18.0308 28.8446V19.7605H21.06Z" fill="white"/>
</g>
<defs>
<clipPath id="clip0_190_186">
<rect width="26" height="26" fill="white" transform="translate(3 3)"/>
</clipPath>
</defs>
</svg>
