<svg width="32" height="32" viewBox="0 0 32 32" fill="none" xmlns="http://www.w3.org/2000/svg">
<g clip-path="url(#clip0_190_178)">
<path d="M29 7.5012C28.0435 7.92552 27.0153 8.21217 25.9364 8.34114C27.0376 7.68099 27.8836 6.63566 28.2817 5.39C27.251 6.00139 26.1094 6.44521 24.8943 6.68441C23.9214 5.64766 22.5351 5 21.0008 5C18.055 5 15.6665 7.38823 15.6665 10.334C15.6665 10.7521 15.7137 11.1593 15.8047 11.5497C11.3715 11.3272 7.44102 9.20356 4.81008 5.9763C4.35092 6.7641 4.0878 7.68035 4.0878 8.65795C4.0878 10.5086 5.02952 12.1413 6.46082 13.0978C5.58644 13.0702 4.76393 12.8302 4.04477 12.4307C4.04416 12.4529 4.04416 12.4753 4.04416 12.4978C4.04416 15.0822 5.88289 17.238 8.32312 17.7283C7.87553 17.8503 7.40428 17.9154 6.91781 17.9154C6.57409 17.9154 6.24 17.8819 5.91422 17.8197C6.59308 19.9388 8.56297 21.481 10.8973 21.5239C9.07166 22.9547 6.7717 23.8075 4.27244 23.8075C3.84188 23.8075 3.4173 23.7822 3 23.7329C5.36067 25.2465 8.16452 26.1296 11.1769 26.1296C20.9884 26.1296 26.3539 18.0016 26.3539 10.9524C26.3539 10.7212 26.3487 10.4912 26.3384 10.2623C27.3805 9.51036 28.2848 8.57097 28.9999 7.5012H29Z" fill="#2AA9E0"/>
</g>
<defs>
<clipPath id="clip0_190_178">
<rect width="26" height="21.1296" fill="white" transform="translate(3 5)"/>
</clipPath>
</defs>
</svg>
